<?xml version="1.0" encoding="utf-8"?>
<!-- Generator: Adobe Illustrator 24.1.2, SVG Export Plug-In . SVG Version: 6.00 Build 0)  -->
<svg version="1.1" xmlns="http://www.w3.org/2000/svg" xmlns:xlink="http://www.w3.org/1999/xlink" x="0px" y="0px"
	 viewBox="0 0 841.89 595.28" style="enable-background:new 0 0 841.89 595.28;" xml:space="preserve">
<style type="text/css">
	.st0{display:none;}
	.st1{display:inline;fill:#FFFFFF;stroke:#000000;stroke-miterlimit:10;}
	.st2{fill:#F46B26;stroke:#000000;stroke-miterlimit:10;}
	.st3{fill:none;stroke:#000000;stroke-miterlimit:10;}
	.st4{fill:#D32626;stroke:#000000;stroke-miterlimit:10;}
	.st5{fill:#FFFFFF;stroke:#000000;stroke-miterlimit:10;}
</style>
<g id="Livello_1" class="st0">
	<rect x="454.14" y="252.49" class="st1" width="88.36" height="88.36"/>
	<rect x="630.85" y="252.49" class="st1" width="88.36" height="88.36"/>
	<rect x="542.49" y="252.49" class="st1" width="88.36" height="88.36"/>
</g>
<g id="zen">
	<path class="st2" d="M454.14,252.49"/>
	<polygon class="st2" points="451.4,341.19 539.75,341.19 539.75,317.22 479.48,317.22 539.75,282.29 539.75,252.84 451.4,252.84 
		450.71,276.81 510.99,276.12 451.4,310.37 	"/>
	<polygon class="st2" points="634.17,252.92 634.4,341.28 658.37,341.21 658.21,280.94 693.3,341.12 722.75,341.04 722.52,252.69 
		698.55,252.07 699.39,312.34 664.99,252.84 	"/>
	<path class="st2" d="M630.85,281.95"/>
	<polygon class="st2" points="543.09,271.79 543.09,252.61 631.45,252.61 631.45,272.47 	"/>
	<path class="st2" d="M563.64,271.79"/>
	<rect x="543.09" y="287.2" class="st2" width="87.76" height="19.86"/>
	<path class="st2" d="M563.62,287.09"/>
	<path class="st2" d="M563.62,307.06"/>
	<path class="st2" d="M562.95,321.79"/>
	<path class="st2" d="M630.76,321.1"/>
	<path class="st2" d="M631.45,378.32"/>
	<polyline class="st2" points="630.85,340.42 630.85,320.56 543.09,321.79 543.09,340.97 631.45,340.97 	"/>
	<path class="st3" d="M568.21,391.6"/>
	<path class="st4" d="M563.64,451.85"/>
</g>
<g id="Livello_3" class="st0">
	<rect x="173.99" y="251.02" class="st1" width="88.36" height="88.36"/>
</g>
<g id="Livello_4">
	<path class="st5" d="M254.68,378.32"/>
	<path class="st5" d="M309.83,465.13"/>
	<path class="st3" d="M204.01,418.66"/>
	<path class="st3" d="M231.7,505.98"/>
	<path class="st3" d="M333.32,448.79"/>
	<path class="st3" d="M319.24,382.91"/>
	<path class="st3" d="M271.53,378.32"/>
	<path class="st3" d="M271.53,509.04"/>
	<path class="st3" d="M299.11,480.45"/>
	<path class="st3" d="M299.11,483"/>
	<path class="st3" d="M297.06,410.49"/>
	<path class="st3" d="M297.06,433.47"/>
	<path class="st3" d="M283.28,410.49"/>
</g>
</svg>
